<?xml version="1.0" encoding="UTF-8"?>
<svg width="120px" height="120px" viewBox="0 0 120 120" version="1.1" xmlns="http://www.w3.org/2000/svg" xmlns:xlink="http://www.w3.org/1999/xlink">
    <!-- Generator: Sketch 60.1 (88133) - https://sketch.com -->
    <title>Artboard</title>
    <desc>Created with Sketch.</desc>
    <defs>
        <path d="M39.842105,21.7799818 L33.626434,15.6527056 C33.3586472,15.4027672 31.0428571,13.1722569 31.0428571,10.3964266 C31.0428571,6.96166793 33.1851515,4.68571429 36.7757576,4.68571429 C38.3372186,4.68571429 39.8157035,5.54913763 41,6.57161265 C42.1805249,5.54913763 43.6627814,4.68571429 45.2242424,4.68571429 C48.6828409,4.68571429 50.9571429,6.82533793 50.9571429,10.3964266 C50.9571429,12.3656377 49.7577597,14.3159142 48.3886526,15.6489186 L48.373566,15.6640664 L42.157895,21.7799818 C41.5159979,22.4161966 40.4840021,22.4161966 39.842105,21.7799818 Z M34.8861634,14.3462097 L41,20.3750254 L47.1025216,14.3651444 C48.1321807,13.3426694 49.1467532,11.8544002 49.1467532,10.3964266 C49.1467532,7.86296072 47.7059848,6.50344765 45.2242424,6.50344765 C43.444026,6.50344765 41.7241558,8.37041128 41,9.09371768 C40.3588203,8.44993712 38.5861472,6.50344765 36.7757576,6.50344765 C34.2902435,6.50344765 32.8532468,7.86296072 32.8532468,10.3964266 C32.8532468,11.8089569 33.860276,13.3843258 34.8861634,14.3462097 Z" id="path-1"></path>
    </defs>
    <g id="Artboard" stroke="none" stroke-width="1" fill="none" fill-rule="evenodd">
        <g id="laptop-cloud" transform="translate(19.000000, 25.000000)">
            <path d="M68.2942857,54.1785714 L13.7057143,54.1785714 C9.43,54.1785714 5.91571429,50.6642857 5.91571429,46.3885714 L5.91571429,15.2285714 C5.91571429,10.9528571 9.43,7.43857143 13.7057143,7.43857143 L68.2357143,7.43857143 C72.5114286,7.43857143 76.0257143,10.9528571 76.0257143,15.2285714 L76.0257143,46.4471429 C76.0257143,50.7228571 72.57,54.1785714 68.2942857,54.1785714 Z M13.7057143,10.5428571 C11.1285714,10.5428571 9.02,12.6514286 9.02,15.2285714 L9.02,46.4471429 C9.02,49.0242857 11.1285714,51.1328571 13.7057143,51.1328571 L68.2357143,51.1328571 C70.8128571,51.1328571 72.9214286,49.0242857 72.9214286,46.4471429 L72.9214286,15.2285714 C72.9214286,12.6514286 70.8128571,10.5428571 68.2357143,10.5428571 L13.7057143,10.5428571 Z" id="XMLID_2299_" fill="#CDCDD0" fill-rule="nonzero"></path>
            <path d="M76.8457143,68.7042857 L5.15428571,68.7042857 C2.57714286,68.7042857 0.468571429,66.5957143 0.468571429,64.0185714 L0.468571429,61.5585714 C0.468571429,58.9814286 2.57714286,56.8728571 5.15428571,56.8728571 L76.7871429,56.8728571 C79.3642857,56.8728571 81.4728571,58.9814286 81.4728571,61.5585714 L81.4728571,64.0185714 C81.4728571,66.6542857 79.4228571,68.7042857 76.8457143,68.7042857 Z M5.15428571,60.0357143 C4.27571429,60.0357143 3.57285714,60.7385714 3.57285714,61.6171429 L3.57285714,64.0771429 C3.57285714,64.9557143 4.27571429,65.6585714 5.15428571,65.6585714 L76.7871429,65.6585714 C77.6657143,65.6585714 78.3685714,64.9557143 78.3685714,64.0771429 L78.3685714,61.6171429 C78.3685714,60.7385714 77.6657143,60.0357143 76.7871429,60.0357143 L5.15428571,60.0357143 Z" id="XMLID_2290_" fill="#CDCDD0" fill-rule="nonzero"></path>
            <path d="M21.6714286,0 L60.3285714,0 C63.5633821,-5.94225081e-16 66.1857143,2.62233218 66.1857143,5.85714286 L66.1857143,22.2571429 C66.1857143,25.4919535 63.5633821,28.1142857 60.3285714,28.1142857 L39.8722814,28.1142857 L39.8722814,28.1142857 L30.0987207,34.5571429 L30.0987207,28.1142857 L21.6714286,28.1142857 C18.4366179,28.1142857 15.8142857,25.4919535 15.8142857,22.2571429 L15.8142857,5.85714286 C15.8142857,2.62233218 18.4366179,5.94225081e-16 21.6714286,0 Z" id="Rectangle" stroke="#CDCDD0" stroke-width="2.92857143" fill="#FFFFFF"></path>
            <mask id="mask-2" fill="white">
                <use xlink:href="#path-1"></use>
            </mask>
            <use id="Mask" stroke="#FF53D5" stroke-width="1.17142857" fill="#FF53D5" fill-rule="nonzero" xlink:href="#path-1"></use>
        </g>
    </g>
</svg>