<?xml version="1.0" encoding="UTF-8"?>
<svg width="150px" height="150px" viewBox="0 0 150 150" version="1.1" xmlns="http://www.w3.org/2000/svg" xmlns:xlink="http://www.w3.org/1999/xlink">
    <!-- Generator: Sketch 60.1 (88133) - https://sketch.com -->
    <title>Artboard</title>
    <desc>Created with Sketch.</desc>
    <g id="Artboard" stroke="none" stroke-width="1" fill="none" fill-rule="evenodd">
        <g id="laptop-globe" transform="translate(36.000000, 35.000000)">
            <path d="M11.1113208,66.5207547 L54.5264151,66.5207547 C58.0584906,66.5207547 61.0018868,63.6509434 61.0018868,60.045283 L61.0018868,35.1735849 C61.0018868,31.6415094 58.1320755,28.6981132 54.5264151,28.6981132 L11.1113208,28.6981132 C7.57924528,28.6981132 4.63584906,31.5679245 4.63584906,35.1735849 L4.63584906,60.045283 C4.63584906,63.6509434 7.57924528,66.5207547 11.1113208,66.5207547 Z M7.65283019,35.1735849 C7.65283019,33.2603774 9.19811321,31.7150943 11.1113208,31.7150943 L54.5264151,31.7150943 C56.4396226,31.7150943 57.9849057,33.2603774 57.9849057,35.1735849 L57.9849057,60.045283 C57.9849057,61.9584906 56.4396226,63.5037736 54.5264151,63.5037736 L11.1113208,63.5037736 C9.19811321,63.5037736 7.65283019,61.9584906 7.65283019,60.045283 L7.65283019,35.1735849 L7.65283019,35.1735849 Z" id="XMLID_816_" fill="#4FC1EA" fill-rule="nonzero"></path>
            <path d="M60.9283019,68.2132075 L4.78301887,68.2132075 C2.35471698,68.2132075 0.367924528,70.2 0.367924528,72.6283019 L0.367924528,73.6584906 C0.367924528,76.0867925 2.35471698,78.0735849 4.78301887,78.0735849 L61.0018868,78.0735849 C63.4301887,78.0735849 65.4169811,76.0867925 65.4169811,73.6584906 L65.4169811,72.6283019 C65.3433962,70.2 63.3566038,68.2132075 60.9283019,68.2132075 Z M62.4,73.6584906 C62.4,74.4679245 61.7377358,75.0566038 61.0018868,75.0566038 L4.78301887,75.0566038 C3.97358491,75.0566038 3.38490566,74.3943396 3.38490566,73.6584906 L3.38490566,72.6283019 C3.38490566,71.8188679 4.04716981,71.2301887 4.78301887,71.2301887 L61.0018868,71.2301887 C61.8113208,71.2301887 62.4,71.8924528 62.4,72.6283019 L62.4,73.6584906 Z" id="XMLID_781_" fill="#4FC1EA" fill-rule="nonzero"></path>
            <path d="M50.2584906,0 C35.1,0 22.8113208,12.3622642 22.8113208,27.5207547 C22.8113208,27.9622642 22.8113208,28.3301887 22.8113208,28.6981132 L54.6,28.6981132 C55.2622642,28.6981132 55.9245283,28.7716981 56.5132075,28.9924528 L62.1056604,28.9924528 C62.0320755,32.009434 61.6641509,34.8792453 61.0754717,37.5283019 L61.0754717,46.5792453 C61.6641509,45.4754717 62.1792453,44.2981132 62.6207547,43.0471698 C65.1226415,42.7528302 67.6981132,42.3113208 70.2,41.7962264 C67.845283,45.0339623 64.6811321,47.6830189 61.0754717,49.4490566 L61.0754717,52.7603774 C70.9358491,48.5660377 77.8528302,38.7792453 77.8528302,27.4471698 C77.7792453,12.3622642 65.490566,0 50.2584906,0 Z M35.4679245,26.0490566 L25.8283019,26.0490566 C26.0490566,22.7377358 26.8584906,19.5735849 28.2566038,16.7773585 L28.2566038,16.7773585 C31.1264151,16.1150943 34.0698113,15.5264151 36.9396226,15.1584906 C36.1301887,18.3962264 35.6150943,22.0754717 35.4679245,26.0490566 Z M30.4641509,13.245283 C33.3339623,9.27169811 37.454717,6.10754717 42.1641509,4.48867925 C40.545283,6.4754717 39.1471698,9.0509434 38.0433962,11.9943396 C35.4679245,12.2886792 32.9660377,12.6566038 30.4641509,13.245283 Z M48.7867925,26.0490566 L38.4849057,26.0490566 C38.6320755,21.9283019 39.2207547,18.1018868 40.2509434,14.7169811 C43.0471698,14.4226415 45.9169811,14.2754717 48.7867925,14.2018868 L48.7867925,26.0490566 Z M48.7867925,11.1849057 C46.2849057,11.2584906 43.8566038,11.3320755 41.354717,11.5528302 C43.1943396,7.13773585 45.8433962,4.04716981 48.7867925,3.23773585 L48.7867925,11.1849057 Z M51.8037736,3.23773585 C54.7471698,4.04716981 57.3226415,7.13773585 59.2358491,11.5528302 C56.8075472,11.3320755 54.3056604,11.1849057 51.8037736,11.1849057 L51.8037736,3.23773585 Z M51.8037736,26.0490566 L51.8037736,14.2018868 C54.6735849,14.2754717 57.4698113,14.4226415 60.3396226,14.7169811 C61.3698113,18.1018868 62.0320755,21.9283019 62.1056604,26.0490566 L51.8037736,26.0490566 Z M62.6207547,11.9207547 C61.5169811,8.90377358 60.1188679,6.32830189 58.5,4.41509434 C63.209434,6.10754717 67.3301887,9.19811321 70.2,13.1716981 C67.6245283,12.6566038 65.1226415,12.2886792 62.6207547,11.9207547 Z M72.2603774,16.7773585 L72.2603774,16.7773585 C73.6584906,19.5735849 74.5415094,22.7377358 74.6886792,26.0490566 L65.0490566,26.0490566 C64.9754717,22.1490566 64.3867925,18.3962264 63.5037736,15.1584906 C66.5207547,15.5264151 69.390566,16.0415094 72.2603774,16.7773585 Z M72.2603774,38.3377358 L72.2603774,38.3377358 C69.390566,39 66.4471698,39.5886792 63.5773585,39.9566038 C64.4603774,36.645283 64.9754717,32.9660377 65.1226415,29.0660377 L74.7622642,29.0660377 C74.5415094,32.3037736 73.6584906,35.4679245 72.2603774,38.3377358 Z" id="XMLID_663_" fill="#CDCDD0" fill-rule="nonzero"></path>
            <rect id="Rectangle" fill="#CDCDD0" x="26.490566" y="49.3018868" width="2.94339623" height="6.62264151"></rect>
            <rect id="Rectangle" fill="#CDCDD0" x="30.9056604" y="44.1509434" width="2.94339623" height="11.7735849"></rect>
            <rect id="Rectangle" fill="#CDCDD0" x="35.3207547" y="39" width="2.94339623" height="16.9245283"></rect>
        </g>
    </g>
</svg>