<?xml version="1.0" encoding="UTF-8"?>
<svg width="264px" height="150px" viewBox="0 0 264 150" version="1.1" xmlns="http://www.w3.org/2000/svg" xmlns:xlink="http://www.w3.org/1999/xlink">
    <!-- Generator: Sketch 60.1 (88133) - https://sketch.com -->
    <title>Artboard</title>
    <desc>Created with Sketch.</desc>
    <g id="Artboard" stroke="none" stroke-width="1" fill="none" fill-rule="evenodd">
        <g id="amazon-logo-rgb" transform="translate(0.000000, 58.000000)" fill="#CCCCCC">
            <path d="M34.6082577,45.3433841 C51.9689715,55.4459833 73.438627,61.5303219 95.6134187,61.5303219 C110.571446,61.5303219 127.014468,58.4261267 142.145152,52.0080817 C144.426688,51.040333 146.339697,53.5112115 144.107491,55.1616074 C130.610517,65.1212931 111.044439,70.4177944 94.1951664,70.4177944 C70.5818099,70.4177944 49.3167309,61.6891951 33.2255524,47.1591823 C31.9625461,46.0180514 33.089168,44.460513 34.6082577,45.3433841 Z M155.482527,44.3531465 C156.964619,46.1856301 155.092961,58.8773558 147.854434,64.9334019 C146.740144,65.8648781 145.680264,65.3679457 146.17502,64.1383101 C147.804378,60.0692681 151.451934,50.9612591 149.723189,48.7493659 C147.996621,46.5396491 138.312606,47.7025434 133.961365,48.2234156 C132.64395,48.3815634 132.440099,47.2295508 133.626933,46.3960102 C141.353687,40.9696536 154.012042,42.5358974 155.482527,44.3531465 Z M180.942876,0.773989725 C191.613502,0.773989725 197.383721,9.93785823 197.383721,21.5842123 C197.383721,32.8410005 191.009928,41.7727254 180.942876,41.7727254 C170.4732,41.7727254 164.768996,32.6081314 164.768996,21.1953718 C164.768996,9.70353829 170.539941,0.773989725 180.942876,0.773989725 Z M111.529039,0.417794393 C115.027878,0.417794393 119.599656,1.34999603 122.357087,3.99715848 C125.8552,7.26530507 125.517867,11.6238011 125.517867,16.3718631 L125.517867,27.5698899 C125.517867,30.9410502 126.917983,32.4180638 128.231771,34.2324111 C128.691705,34.8882168 128.793993,35.6651724 128.207831,36.1439686 C126.740248,37.3750551 124.130809,39.6406315 122.695871,40.9188722 L122.677009,40.9021869 C122.202566,41.3294762 121.516292,41.3577687 120.980185,41.0697655 C118.592733,39.0856632 118.164718,38.168696 116.858185,36.278902 C112.912469,40.2986135 110.118041,41.5050348 105.005804,41.5050348 C98.9533847,41.5050348 94.2452224,37.7689738 94.2452224,30.2997535 C94.2452224,24.4635184 97.406728,20.4953138 101.911765,18.5496602 C105.811777,16.8376012 111.260623,16.5263837 115.431227,16.0577438 L115.431227,15.1248167 C115.431227,13.4120323 115.565435,11.3909321 114.556336,9.91174208 C113.68072,8.58779812 112.00058,8.04371157 110.520665,8.04371157 C107.778469,8.04371157 105.341686,9.44818033 104.74174,12.3601316 C104.616963,13.0079573 104.144696,13.6499794 103.493968,13.6833501 L96.5253078,12.9281579 C95.9362434,12.7946754 95.2833396,12.3231337 95.4516437,11.4243027 C97.0548854,2.97064852 104.688782,0.417794393 111.529039,0.417794393 Z M17.2838163,0.417794393 C20.7812047,0.417794393 25.3544335,1.34999603 28.1118642,3.99715848 C31.5232427,7.18559417 31.2874395,11.4118402 31.2739075,16.0251494 L31.2733698,27.5698899 C31.2733698,30.9410502 32.672035,32.4180638 33.9858227,34.2324111 C34.4435808,34.8882168 34.5487709,35.6651724 33.9633337,36.1439686 C32.4943,37.3750551 29.8841355,39.6406315 28.4491979,40.9188722 L28.4325125,40.9021869 C27.9580691,41.3294762 27.2703437,41.3577687 26.734237,41.0697655 C24.3453343,39.0856632 23.9173196,38.168696 22.6136882,36.278902 C18.6657961,40.2986135 15.8713676,41.5050348 10.7605812,41.5050348 C4.70743689,41.5050348 0,37.7689738 0,30.2997535 C0,24.4635184 3.16005472,20.4953138 7.6665423,18.5496602 C11.5665547,16.8376012 17.0154002,16.5263837 21.1838287,16.0577438 L21.1838287,15.1248167 C21.1838287,13.4120323 21.3194876,11.3909321 20.3111139,9.91174208 C19.4354972,8.58779812 17.7539071,8.04371157 16.2754425,8.04371157 C13.5332463,8.04371157 11.0942876,9.44818033 10.4972433,12.3601316 C10.3724661,13.0079573 9.89947353,13.6499794 9.24802056,13.6833501 L2.2800854,12.9281579 C1.69102102,12.7946754 1.03666625,12.3231337 1.20642126,11.4243027 C2.80748663,2.97064852 10.4413837,0.417794393 17.2838163,0.417794393 Z M77.8450027,0.773989725 C80.8650458,0.773989725 84.1527795,2.01668342 86.1658998,4.81183742 C88.4474361,7.91893438 87.9795216,12.4210693 87.9795216,16.381294 L87.9722671,39.6667477 C87.9722671,40.4030781 87.3527339,40.9943189 86.5852091,40.9943189 L79.4054429,40.9943189 C78.682896,40.9486156 78.1155951,40.3776874 78.1155951,39.6696495 L78.1134187,20.1071987 C78.1134187,18.5569147 78.2476267,14.6735876 77.9110185,13.1987503 C77.3749119,10.7126375 75.7644157,10.0133049 73.6845542,10.0133049 C71.9391245,10.0133049 70.1269535,11.1783756 69.3877213,13.0413279 C68.6506653,14.9057312 68.7174066,18.0106518 68.7174066,20.1071987 L68.7174066,39.6667477 C68.7174066,40.4030781 68.097148,40.9943189 67.3310741,40.9943189 L60.1505824,40.9943189 C59.4280355,40.9486156 58.8592837,40.3776874 58.8592837,39.6696495 L58.8520292,20.1071987 C58.8520292,15.9924534 59.5230693,9.93785823 54.4238901,9.93785823 C49.2550678,9.93785823 49.457468,15.8372074 49.457468,20.1071987 L49.4545662,39.6667477 C49.4545662,40.4030781 48.8335821,40.9943189 48.0675082,40.9943189 L40.8783112,40.9943189 C40.194213,40.9500665 39.6479501,40.4364488 39.5920905,39.7791922 L39.5978941,2.88069287 C39.5978941,2.14218605 40.2181528,1.55312167 40.9856776,1.55312167 L47.680844,1.55094533 C48.380902,1.58649232 48.9431248,2.11679535 48.9866517,2.79073723 L48.9866517,7.60771687 L49.1223107,7.60771687 C50.8670149,2.94888505 54.155474,0.773989725 58.5836131,0.773989725 C63.0799445,0.773989725 65.8990383,2.94888505 67.9121585,7.60771687 C69.6575882,2.94888505 73.6170874,0.773989725 77.8450027,0.773989725 Z M222.017058,0.773989725 C225.238051,0.773989725 228.393027,1.93833496 230.406148,5.12305493 C232.28506,8.07272952 232.28506,13.0413279 232.28506,16.614163 L232.28506,39.8336009 C232.205261,40.4865048 231.617647,40.9943189 230.907433,40.9943189 L223.700825,40.9943189 C223.034863,40.9522428 222.498031,40.4625649 222.421133,39.8336009 L222.421133,19.7996084 C222.421133,15.7610353 222.891224,9.85878432 217.924802,9.85878432 C216.179372,9.85878432 214.568876,11.023855 213.763628,12.8091844 C212.756705,15.0617027 212.621772,17.3120447 212.621772,19.7996084 L212.621772,39.6667477 C212.609439,40.4030781 211.988455,40.9943189 211.222381,40.9943189 L204.0593,40.9943189 C203.339655,40.9486156 202.769452,40.3776874 202.769452,39.6696495 L202.75712,2.75736659 C202.818057,2.08197381 203.414376,1.55312167 204.138374,1.55312167 L210.806699,1.55094533 C211.434938,1.58431597 211.952908,2.01160528 212.08494,2.58398434 L212.08494,8.22797555 L212.219873,8.22797555 C214.234444,3.17957775 217.050636,0.773989725 222.017058,0.773989725 Z M159.236724,1.4537352 C159.992642,1.4537352 160.599117,2.00289989 160.599117,2.78420819 L160.599117,7.3059302 C160.591863,8.06474958 159.952742,9.05353622 158.820317,10.6248582 L146.579095,28.1023693 C151.121855,27.9957283 155.928678,28.6776501 160.057932,30.9976352 C160.988683,31.5206838 161.238237,32.2947376 161.311508,33.0550078 L161.311508,38.6815883 C161.311508,39.4556421 160.462007,40.3537476 159.570431,39.8858332 C152.297807,36.0757764 142.645712,35.6600943 134.601936,39.9329874 C133.780002,40.370433 132.920346,39.4861109 132.920346,38.7098808 L132.920346,33.3625981 C132.920346,32.5058431 132.937031,31.0433385 133.800315,29.7389816 L147.982113,9.39232078 L135.634249,9.39086988 C134.879057,9.39086988 134.273308,8.85331236 134.268229,8.06329868 L134.268229,2.79073723 C134.273308,1.98766547 134.876881,1.4537352 135.605232,1.45591154 L159.236724,1.4537352 Z M115.431227,21.8178068 C110.22976,21.8178068 104.737388,22.9306452 104.737388,29.0534326 C104.737388,32.1663331 106.351511,34.2686836 109.108216,34.2686836 C111.124964,34.2686836 112.942213,33.0223626 114.084795,31.000537 C115.313011,28.8336532 115.423296,26.7874489 115.43117,24.4474161 Z M21.1838287,21.8178068 C15.9845376,21.8178068 10.4907143,22.9306452 10.4907143,29.0534326 C10.4907143,32.1663331 12.1062886,34.2686836 14.8622684,34.2686836 C16.8804668,34.2686836 18.6969904,33.0223626 19.8395722,31.000537 C21.2512954,28.5086206 21.1838287,26.1763029 21.1838287,23.3731689 L21.1838287,23.3731689 Z M181.008166,8.30704946 C175.791453,8.30704946 175.384012,15.298636 175.372391,19.813798 L175.372571,20.8623178 C175.383555,25.6177564 175.632223,34.1613172 180.942876,34.1613172 C186.514322,34.1613172 186.781288,26.3968393 186.781288,21.6625608 C186.781288,18.5569147 186.64708,14.8288336 185.706173,11.8784336 C184.90165,9.31469776 183.289703,8.30704946 181.008166,8.30704946 Z" id="Combined-Shape"></path>
        </g>
    </g>
</svg>