<?xml version="1.0" encoding="UTF-8"?>
<svg width="70px" height="30px" viewBox="0 0 70 30" version="1.1" xmlns="http://www.w3.org/2000/svg" xmlns:xlink="http://www.w3.org/1999/xlink">
    <!-- Generator: Sketch 60.1 (88133) - https://sketch.com -->
    <title>Path</title>
    <desc>Created with Sketch.</desc>
    <g id="页面-1" stroke="none" stroke-width="1" fill="none" fill-rule="evenodd">
        <g id="企业官网-（确定内容修改ING）" transform="translate(-120.000000, -31.000000)" fill="#8809FF">
            <g id="导航栏" transform="translate(120.000000, 25.000000)">
                <path d="M56.1585468,6.00035941 C63.4319655,5.96557849 66.9473037,8.45621771 68.9966412,13.0020957 L69.058296,13.1404782 L61.2107623,15.4573216 C60.7447149,13.77564 59.048556,12.5479189 56.4266754,12.5230384 L56.1566755,12.5232539 C55.2393825,12.5311475 53.206278,12.6427859 53.206278,14.2216718 C53.206278,15.9206903 55.2466368,16.2296027 59.6412556,17.0018839 C66.7040359,18.3919899 70,20.8632918 70,26.2692576 C70,33.0653317 62.1524664,36 56.9730942,36 C48.993361,36 45.296101,32.2292111 43.2074274,27.9768712 L42.8475336,27.9682761 C43.8938714,31.1603715 45.568012,33.6831566 47.8699552,35.5366313 L38.9237668,35.5366313 L33.5874439,24.5702391 L30.4484305,28.7827238 L30.4484305,35.5366313 L17.4215247,35.5366313 L12.3349103,25.1080557 L8.94618834,29.7048275 L8.94618834,35.5366313 L0,35.5366313 L0,6.34440412 L8.94618834,8.97016 L8.94618834,18.3396293 L17.264574,6.49886035 L26.0538117,6.49886035 L18.2557175,17.0767952 L27.4651121,34.6363392 L21.3452915,17.1563401 L30.4484305,6.34440412 L30.4484305,18.4140772 L38.9237668,6.49886035 L47.3991031,6.49886035 L39.601009,17.0767952 L44.1288789,25.6513115 L51.0089686,25.6514327 C52.2520179,28.250931 53.9565493,29.1852213 56.8840082,29.2036472 L56.9730942,29.2039259 C59.6412556,29.2039259 60.2690583,28.2771886 60.2690583,27.195995 C60.2690583,26.1148014 59.4843049,25.3425202 53.9910314,24.4157829 C47.8412247,23.3782857 43.7892377,21.0177458 43.7892377,15.3028654 C43.7892377,10.0513536 48.8116592,6.03549166 56.1585468,6.00035941 Z" id="Path"></path>
            </g>
        </g>
    </g>
</svg>