<?xml version="1.0" encoding="UTF-8"?>
<svg width="70px" height="30px" viewBox="0 0 70 30" version="1.1" xmlns="http://www.w3.org/2000/svg" xmlns:xlink="http://www.w3.org/1999/xlink">
    <!-- Generator: Sketch 60.1 (88133) - https://sketch.com -->
    <title>Path</title>
    <desc>Created with Sketch.</desc>
    <g id="页面-1" stroke="none" stroke-width="1" fill="none" fill-rule="evenodd">
        <g id="企业官网-（确定内容修改ING）" transform="translate(-326.000000, -31.000000)" fill="#FFFFFF">
            <g id="导航栏" transform="translate(120.000000, 25.000000)">
                <path d="M262.158547,6.00035941 C269.431965,5.96557849 272.947304,8.45621771 274.996641,13.0020957 L275.058296,13.1404782 L267.210762,15.4573216 C266.744715,13.77564 265.048556,12.5479189 262.426675,12.5230384 L262.156675,12.5232539 C261.239383,12.5311475 259.206278,12.6427859 259.206278,14.2216718 C259.206278,15.9206903 261.246637,16.2296027 265.641256,17.0018839 C272.704036,18.3919899 276,20.8632918 276,26.2692576 C276,33.0653317 268.152466,36 262.973094,36 C254.993361,36 251.296101,32.2292111 249.207427,27.9768712 L248.847534,27.9682761 C249.893871,31.1603715 251.568012,33.6831566 253.869955,35.5366313 L244.923767,35.5366313 L239.587444,24.5702391 L236.44843,28.7827238 L236.44843,35.5366313 L223.421525,35.5366313 L218.33491,25.1080557 L214.946188,29.7048275 L214.946188,35.5366313 L206,35.5366313 L206,6.34440412 L214.946188,8.97016 L214.946188,18.3396293 L223.264574,6.49886035 L232.053812,6.49886035 L224.255717,17.0767952 L233.465112,34.6363392 L227.345291,17.1563401 L236.44843,6.34440412 L236.44843,18.4140772 L244.923767,6.49886035 L253.399103,6.49886035 L245.601009,17.0767952 L250.128879,25.6513115 L257.008969,25.6514327 C258.252018,28.250931 259.956549,29.1852213 262.884008,29.2036472 L262.973094,29.2039259 C265.641256,29.2039259 266.269058,28.2771886 266.269058,27.195995 C266.269058,26.1148014 265.484305,25.3425202 259.991031,24.4157829 C253.841225,23.3782857 249.789238,21.0177458 249.789238,15.3028654 C249.789238,10.0513536 254.811659,6.03549166 262.158547,6.00035941 Z" id="Path"></path>
            </g>
        </g>
    </g>
</svg>